<?xml version="1.0" encoding="UTF-8" standalone="no"?>
<!DOCTYPE svg PUBLIC "-//W3C//DTD SVG 20010904//EN"
              "http://www.w3.org/TR/2001/REC-SVG-20010904/DTD/svg10.dtd">

<svg xmlns="http://www.w3.org/2000/svg"
     width="1in" height="1in"
     viewBox="0 0 300 300">
  <path id="Selection"
        fill="black" stroke="black" stroke-width="1"
        d="M 37.00,37.00
           C 37.00,37.00 100.00,37.00 100.00,37.00
             100.00,37.00 100.00,100.00 100.00,100.00
             100.00,100.00 37.00,100.00 37.00,100.00
             37.00,100.00 37.00,37.00 37.00,37.00 Z
           M 136.00,37.00
           C 136.00,37.00 145.00,37.00 145.00,37.00
             145.00,37.00 145.00,46.00 145.00,46.00
             145.00,46.00 136.00,46.00 136.00,46.00
             136.00,46.00 136.00,64.00 136.00,64.00
             136.00,64.00 145.00,64.00 145.00,64.00
             145.00,64.00 145.00,55.00 145.00,55.00
             145.00,55.00 154.00,55.00 154.00,55.00
             154.00,55.00 154.00,46.00 154.00,46.00
             154.00,46.00 172.00,46.00 172.00,46.00
             172.00,46.00 172.00,37.00 172.00,37.00
             172.00,37.00 181.00,37.00 181.00,37.00
             181.00,37.00 181.00,46.00 181.00,46.00
             181.00,46.00 190.00,46.00 190.00,46.00
             190.00,46.00 190.00,55.00 190.00,55.00
             190.00,55.00 181.00,55.00 181.00,55.00
             181.00,55.00 181.00,64.00 181.00,64.00
             181.00,64.00 190.00,64.00 190.00,64.00
             190.00,64.00 190.00,82.00 190.00,82.00
             190.00,82.00 181.00,82.00 181.00,82.00
             181.00,82.00 181.00,91.00 181.00,91.00
             181.00,91.00 190.00,91.00 190.00,91.00
             190.00,91.00 190.00,100.00 190.00,100.00
             190.00,100.00 181.00,100.00 181.00,100.00
             181.00,100.00 181.00,91.00 181.00,91.00
             181.00,91.00 172.00,91.00 172.00,91.00
             172.00,91.00 172.00,100.00 172.00,100.00
             172.00,100.00 163.00,100.00 163.00,100.00
             163.00,100.00 163.00,109.00 163.00,109.00
             163.00,109.00 172.00,109.00 172.00,109.00
             172.00,109.00 172.00,118.00 172.00,118.00
             172.00,118.00 181.00,118.00 181.00,118.00
             181.00,118.00 181.00,136.00 181.00,136.00
             181.00,136.00 190.00,136.00 190.00,136.00
             190.00,136.00 190.00,127.00 190.00,127.00
             190.00,127.00 199.00,127.00 199.00,127.00
             199.00,127.00 199.00,109.00 199.00,109.00
             199.00,109.00 226.00,109.00 226.00,109.00
             226.00,109.00 226.00,127.00 226.00,127.00
             226.00,127.00 244.00,127.00 244.00,127.00
             244.00,127.00 244.00,118.00 244.00,118.00
             244.00,118.00 235.00,118.00 235.00,118.00
             235.00,118.00 235.00,109.00 235.00,109.00
             235.00,109.00 253.00,109.00 253.00,109.00
             253.00,109.00 253.00,127.00 253.00,127.00
             253.00,127.00 244.00,127.00 244.00,127.00
             244.00,127.00 244.00,136.00 244.00,136.00
             244.00,136.00 226.00,136.00 226.00,136.00
             226.00,136.00 226.00,145.00 226.00,145.00
             226.00,145.00 217.00,145.00 217.00,145.00
             217.00,145.00 217.00,154.00 217.00,154.00
             217.00,154.00 226.00,154.00 226.00,154.00
             226.00,154.00 226.00,163.00 226.00,163.00
             226.00,163.00 235.00,163.00 235.00,163.00
             235.00,163.00 235.00,145.00 235.00,145.00
             235.00,145.00 253.00,145.00 253.00,145.00
             253.00,145.00 253.00,136.00 253.00,136.00
             253.00,136.00 262.00,136.00 262.00,136.00
             262.00,136.00 262.00,154.00 262.00,154.00
             262.00,154.00 253.00,154.00 253.00,154.00
             253.00,154.00 253.00,163.00 253.00,163.00
             253.00,163.00 235.00,163.00 235.00,163.00
             235.00,163.00 235.00,172.00 235.00,172.00
             235.00,172.00 217.00,172.00 217.00,172.00
             217.00,172.00 217.00,181.00 217.00,181.00
             217.00,181.00 226.00,181.00 226.00,181.00
             226.00,181.00 226.00,199.00 226.00,199.00
             226.00,199.00 235.00,199.00 235.00,199.00
             235.00,199.00 235.00,208.00 235.00,208.00
             235.00,208.00 244.00,208.00 244.00,208.00
             244.00,208.00 244.00,199.00 244.00,199.00
             244.00,199.00 262.00,199.00 262.00,199.00
             262.00,199.00 262.00,217.00 262.00,217.00
             262.00,217.00 253.00,217.00 253.00,217.00
             253.00,217.00 253.00,226.00 253.00,226.00
             253.00,226.00 235.00,226.00 235.00,226.00
             235.00,226.00 235.00,217.00 235.00,217.00
             235.00,217.00 226.00,217.00 226.00,217.00
             226.00,217.00 226.00,235.00 226.00,235.00
             226.00,235.00 244.00,235.00 244.00,235.00
             244.00,235.00 244.00,244.00 244.00,244.00
             244.00,244.00 253.00,244.00 253.00,244.00
             253.00,244.00 253.00,235.00 253.00,235.00
             253.00,235.00 262.00,235.00 262.00,235.00
             262.00,235.00 262.00,262.00 262.00,262.00
             262.00,262.00 244.00,262.00 244.00,262.00
             244.00,262.00 244.00,244.00 244.00,244.00
             244.00,244.00 235.00,244.00 235.00,244.00
             235.00,244.00 235.00,262.00 235.00,262.00
             235.00,262.00 217.00,262.00 217.00,262.00
             217.00,262.00 217.00,253.00 217.00,253.00
             217.00,253.00 226.00,253.00 226.00,253.00
             226.00,253.00 226.00,235.00 226.00,235.00
             226.00,235.00 217.00,235.00 217.00,235.00
             217.00,235.00 217.00,244.00 217.00,244.00
             217.00,244.00 208.00,244.00 208.00,244.00
             208.00,244.00 208.00,226.00 208.00,226.00
             208.00,226.00 199.00,226.00 199.00,226.00
             199.00,226.00 199.00,235.00 199.00,235.00
             199.00,235.00 181.00,235.00 181.00,235.00
             181.00,235.00 181.00,253.00 181.00,253.00
             181.00,253.00 190.00,253.00 190.00,253.00
             190.00,253.00 190.00,244.00 190.00,244.00
             190.00,244.00 199.00,244.00 199.00,244.00
             199.00,244.00 199.00,262.00 199.00,262.00
             199.00,262.00 163.00,262.00 163.00,262.00
             163.00,262.00 163.00,244.00 163.00,244.00
             163.00,244.00 172.00,244.00 172.00,244.00
             172.00,244.00 172.00,235.00 172.00,235.00
             172.00,235.00 181.00,235.00 181.00,235.00
             181.00,235.00 181.00,226.00 181.00,226.00
             181.00,226.00 163.00,226.00 163.00,226.00
             163.00,226.00 163.00,235.00 163.00,235.00
             163.00,235.00 127.00,235.00 127.00,235.00
             127.00,235.00 127.00,244.00 127.00,244.00
             127.00,244.00 154.00,244.00 154.00,244.00
             154.00,244.00 154.00,262.00 154.00,262.00
             154.00,262.00 145.00,262.00 145.00,262.00
             145.00,262.00 145.00,253.00 145.00,253.00
             145.00,253.00 136.00,253.00 136.00,253.00
             136.00,253.00 136.00,262.00 136.00,262.00
             136.00,262.00 127.00,262.00 127.00,262.00
             127.00,262.00 127.00,244.00 127.00,244.00
             127.00,244.00 118.00,244.00 118.00,244.00
             118.00,244.00 118.00,262.00 118.00,262.00
             118.00,262.00 109.00,262.00 109.00,262.00
             109.00,262.00 109.00,244.00 109.00,244.00
             109.00,244.00 118.00,244.00 118.00,244.00
             118.00,244.00 118.00,235.00 118.00,235.00
             118.00,235.00 109.00,235.00 109.00,235.00
             109.00,235.00 109.00,226.00 109.00,226.00
             109.00,226.00 127.00,226.00 127.00,226.00
             127.00,226.00 127.00,217.00 127.00,217.00
             127.00,217.00 145.00,217.00 145.00,217.00
             145.00,217.00 145.00,199.00 145.00,199.00
             145.00,199.00 136.00,199.00 136.00,199.00
             136.00,199.00 136.00,190.00 136.00,190.00
             136.00,190.00 145.00,190.00 145.00,190.00
             145.00,190.00 145.00,181.00 145.00,181.00
             145.00,181.00 172.00,181.00 172.00,181.00
             172.00,181.00 172.00,190.00 172.00,190.00
             172.00,190.00 163.00,190.00 163.00,190.00
             163.00,190.00 163.00,208.00 163.00,208.00
             163.00,208.00 181.00,208.00 181.00,208.00
             181.00,208.00 181.00,172.00 181.00,172.00
             181.00,172.00 190.00,172.00 190.00,172.00
             190.00,172.00 190.00,181.00 190.00,181.00
             190.00,181.00 199.00,181.00 199.00,181.00
             199.00,181.00 199.00,163.00 199.00,163.00
             199.00,163.00 208.00,163.00 208.00,163.00
             208.00,163.00 208.00,154.00 208.00,154.00
             208.00,154.00 199.00,154.00 199.00,154.00
             199.00,154.00 199.00,136.00 199.00,136.00
             199.00,136.00 190.00,136.00 190.00,136.00
             190.00,136.00 190.00,145.00 190.00,145.00
             190.00,145.00 181.00,145.00 181.00,145.00
             181.00,145.00 181.00,136.00 181.00,136.00
             181.00,136.00 172.00,136.00 172.00,136.00
             172.00,136.00 172.00,145.00 172.00,145.00
             172.00,145.00 163.00,145.00 163.00,145.00
             163.00,145.00 163.00,154.00 163.00,154.00
             163.00,154.00 172.00,154.00 172.00,154.00
             172.00,154.00 172.00,172.00 172.00,172.00
             172.00,172.00 145.00,172.00 145.00,172.00
             145.00,172.00 145.00,145.00 145.00,145.00
             145.00,145.00 136.00,145.00 136.00,145.00
             136.00,145.00 136.00,154.00 136.00,154.00
             136.00,154.00 127.00,154.00 127.00,154.00
             127.00,154.00 127.00,145.00 127.00,145.00
             127.00,145.00 100.00,145.00 100.00,145.00
             100.00,145.00 100.00,154.00 100.00,154.00
             100.00,154.00 91.00,154.00 91.00,154.00
             91.00,154.00 91.00,163.00 91.00,163.00
             91.00,163.00 109.00,163.00 109.00,163.00
             109.00,163.00 109.00,181.00 109.00,181.00
             109.00,181.00 118.00,181.00 118.00,181.00
             118.00,181.00 118.00,190.00 118.00,190.00
             118.00,190.00 127.00,190.00 127.00,190.00
             127.00,190.00 127.00,208.00 127.00,208.00
             127.00,208.00 109.00,208.00 109.00,208.00
             109.00,208.00 109.00,190.00 109.00,190.00
             109.00,190.00 91.00,190.00 91.00,190.00
             91.00,190.00 91.00,181.00 91.00,181.00
             91.00,181.00 82.00,181.00 82.00,181.00
             82.00,181.00 82.00,190.00 82.00,190.00
             82.00,190.00 73.00,190.00 73.00,190.00
             73.00,190.00 73.00,181.00 73.00,181.00
             73.00,181.00 64.00,181.00 64.00,181.00
             64.00,181.00 64.00,190.00 64.00,190.00
             64.00,190.00 37.00,190.00 37.00,190.00
             37.00,190.00 37.00,181.00 37.00,181.00
             37.00,181.00 46.00,181.00 46.00,181.00
             46.00,181.00 46.00,172.00 46.00,172.00
             46.00,172.00 37.00,172.00 37.00,172.00
             37.00,172.00 37.00,163.00 37.00,163.00
             37.00,163.00 46.00,163.00 46.00,163.00
             46.00,163.00 46.00,154.00 46.00,154.00
             46.00,154.00 55.00,154.00 55.00,154.00
             55.00,154.00 55.00,127.00 55.00,127.00
             55.00,127.00 73.00,127.00 73.00,127.00
             73.00,127.00 73.00,118.00 73.00,118.00
             73.00,118.00 64.00,118.00 64.00,118.00
             64.00,118.00 64.00,109.00 64.00,109.00
             64.00,109.00 73.00,109.00 73.00,109.00
             73.00,109.00 73.00,118.00 73.00,118.00
             73.00,118.00 82.00,118.00 82.00,118.00
             82.00,118.00 82.00,127.00 82.00,127.00
             82.00,127.00 100.00,127.00 100.00,127.00
             100.00,127.00 100.00,136.00 100.00,136.00
             100.00,136.00 109.00,136.00 109.00,136.00
             109.00,136.00 109.00,118.00 109.00,118.00
             109.00,118.00 91.00,118.00 91.00,118.00
             91.00,118.00 91.00,109.00 91.00,109.00
             91.00,109.00 109.00,109.00 109.00,109.00
             109.00,109.00 109.00,73.00 109.00,73.00
             109.00,73.00 118.00,73.00 118.00,73.00
             118.00,73.00 118.00,64.00 118.00,64.00
             118.00,64.00 109.00,64.00 109.00,64.00
             109.00,64.00 109.00,46.00 109.00,46.00
             109.00,46.00 136.00,46.00 136.00,46.00
             136.00,46.00 136.00,37.00 136.00,37.00 Z
           M 199.00,37.00
           C 199.00,37.00 262.00,37.00 262.00,37.00
             262.00,37.00 262.00,100.00 262.00,100.00
             262.00,100.00 199.00,100.00 199.00,100.00
             199.00,100.00 199.00,37.00 199.00,37.00 Z
           M 91.00,46.00
           C 91.00,46.00 46.00,46.00 46.00,46.00
             46.00,46.00 46.00,91.00 46.00,91.00
             46.00,91.00 91.00,91.00 91.00,91.00
             91.00,91.00 91.00,46.00 91.00,46.00 Z
           M 253.00,46.00
           C 253.00,46.00 208.00,46.00 208.00,46.00
             208.00,46.00 208.00,91.00 208.00,91.00
             208.00,91.00 253.00,91.00 253.00,91.00
             253.00,91.00 253.00,46.00 253.00,46.00 Z
           M 127.00,55.00
           C 127.00,55.00 118.00,55.00 118.00,55.00
             118.00,55.00 118.00,64.00 118.00,64.00
             118.00,64.00 127.00,64.00 127.00,64.00
             127.00,64.00 127.00,55.00 127.00,55.00 Z
           M 172.00,55.00
           C 172.00,55.00 154.00,55.00 154.00,55.00
             154.00,55.00 154.00,64.00 154.00,64.00
             154.00,64.00 172.00,64.00 172.00,64.00
             172.00,64.00 172.00,55.00 172.00,55.00 Z
           M 55.00,55.00
           C 55.00,55.00 82.00,55.00 82.00,55.00
             82.00,55.00 82.00,82.00 82.00,82.00
             82.00,82.00 55.00,82.00 55.00,82.00
             55.00,82.00 55.00,55.00 55.00,55.00 Z
           M 217.00,55.00
           C 217.00,55.00 244.00,55.00 244.00,55.00
             244.00,55.00 244.00,82.00 244.00,82.00
             244.00,82.00 217.00,82.00 217.00,82.00
             217.00,82.00 217.00,55.00 217.00,55.00 Z
           M 136.00,64.00
           C 136.00,64.00 127.00,64.00 127.00,64.00
             127.00,64.00 127.00,82.00 127.00,82.00
             127.00,82.00 136.00,82.00 136.00,82.00
             136.00,82.00 136.00,64.00 136.00,64.00 Z
           M 154.00,73.00
           C 154.00,73.00 145.00,73.00 145.00,73.00
             145.00,73.00 145.00,91.00 145.00,91.00
             145.00,91.00 154.00,91.00 154.00,91.00
             154.00,91.00 154.00,100.00 154.00,100.00
             154.00,100.00 163.00,100.00 163.00,100.00
             163.00,100.00 163.00,82.00 163.00,82.00
             163.00,82.00 154.00,82.00 154.00,82.00
             154.00,82.00 154.00,73.00 154.00,73.00 Z
           M 181.00,73.00
           C 181.00,73.00 163.00,73.00 163.00,73.00
             163.00,73.00 163.00,82.00 163.00,82.00
             163.00,82.00 181.00,82.00 181.00,82.00
             181.00,82.00 181.00,73.00 181.00,73.00 Z
           M 127.00,82.00
           C 127.00,82.00 118.00,82.00 118.00,82.00
             118.00,82.00 118.00,109.00 118.00,109.00
             118.00,109.00 109.00,109.00 109.00,109.00
             109.00,109.00 109.00,118.00 109.00,118.00
             109.00,118.00 127.00,118.00 127.00,118.00
             127.00,118.00 127.00,127.00 127.00,127.00
             127.00,127.00 118.00,127.00 118.00,127.00
             118.00,127.00 118.00,136.00 118.00,136.00
             118.00,136.00 136.00,136.00 136.00,136.00
             136.00,136.00 136.00,109.00 136.00,109.00
             136.00,109.00 127.00,109.00 127.00,109.00
             127.00,109.00 127.00,82.00 127.00,82.00 Z
           M 145.00,91.00
           C 145.00,91.00 136.00,91.00 136.00,91.00
             136.00,91.00 136.00,109.00 136.00,109.00
             136.00,109.00 145.00,109.00 145.00,109.00
             145.00,109.00 145.00,91.00 145.00,91.00 Z
           M 154.00,109.00
           C 154.00,109.00 145.00,109.00 145.00,109.00
             145.00,109.00 145.00,127.00 145.00,127.00
             145.00,127.00 154.00,127.00 154.00,127.00
             154.00,127.00 154.00,109.00 154.00,109.00 Z
           M 37.00,109.00
           C 37.00,109.00 55.00,109.00 55.00,109.00
             55.00,109.00 55.00,118.00 55.00,118.00
             55.00,118.00 46.00,118.00 46.00,118.00
             46.00,118.00 46.00,127.00 46.00,127.00
             46.00,127.00 37.00,127.00 37.00,127.00
             37.00,127.00 37.00,109.00 37.00,109.00 Z
           M 172.00,118.00
           C 172.00,118.00 163.00,118.00 163.00,118.00
             163.00,118.00 163.00,127.00 163.00,127.00
             163.00,127.00 154.00,127.00 154.00,127.00
             154.00,127.00 154.00,136.00 154.00,136.00
             154.00,136.00 172.00,136.00 172.00,136.00
             172.00,136.00 172.00,118.00 172.00,118.00 Z
           M 217.00,118.00
           C 217.00,118.00 208.00,118.00 208.00,118.00
             208.00,118.00 208.00,127.00 208.00,127.00
             208.00,127.00 217.00,127.00 217.00,127.00
             217.00,127.00 217.00,118.00 217.00,118.00 Z
           M 226.00,127.00
           C 226.00,127.00 217.00,127.00 217.00,127.00
             217.00,127.00 217.00,136.00 217.00,136.00
             217.00,136.00 226.00,136.00 226.00,136.00
             226.00,136.00 226.00,127.00 226.00,127.00 Z
           M 100.00,136.00
           C 100.00,136.00 64.00,136.00 64.00,136.00
             64.00,136.00 64.00,145.00 64.00,145.00
             64.00,145.00 100.00,145.00 100.00,145.00
             100.00,145.00 100.00,136.00 100.00,136.00 Z
           M 82.00,154.00
           C 82.00,154.00 55.00,154.00 55.00,154.00
             55.00,154.00 55.00,163.00 55.00,163.00
             55.00,163.00 46.00,163.00 46.00,163.00
             46.00,163.00 46.00,172.00 46.00,172.00
             46.00,172.00 64.00,172.00 64.00,172.00
             64.00,172.00 64.00,163.00 64.00,163.00
             64.00,163.00 82.00,163.00 82.00,163.00
             82.00,163.00 82.00,154.00 82.00,154.00 Z
           M 163.00,154.00
           C 163.00,154.00 154.00,154.00 154.00,154.00
             154.00,154.00 154.00,163.00 154.00,163.00
             154.00,163.00 163.00,163.00 163.00,163.00
             163.00,163.00 163.00,154.00 163.00,154.00 Z
           M 181.00,154.00
           C 181.00,154.00 190.00,154.00 190.00,154.00
             190.00,154.00 190.00,163.00 190.00,163.00
             190.00,163.00 181.00,163.00 181.00,163.00
             181.00,163.00 181.00,154.00 181.00,154.00 Z
           M 217.00,163.00
           C 217.00,163.00 208.00,163.00 208.00,163.00
             208.00,163.00 208.00,172.00 208.00,172.00
             208.00,172.00 217.00,172.00 217.00,172.00
             217.00,172.00 217.00,163.00 217.00,163.00 Z
           M 127.00,163.00
           C 127.00,163.00 136.00,163.00 136.00,163.00
             136.00,163.00 136.00,181.00 136.00,181.00
             136.00,181.00 127.00,181.00 127.00,181.00
             127.00,181.00 127.00,163.00 127.00,163.00 Z
           M 82.00,172.00
           C 82.00,172.00 73.00,172.00 73.00,172.00
             73.00,172.00 73.00,181.00 73.00,181.00
             73.00,181.00 82.00,181.00 82.00,181.00
             82.00,181.00 82.00,172.00 82.00,172.00 Z
           M 100.00,172.00
           C 100.00,172.00 91.00,172.00 91.00,172.00
             91.00,172.00 91.00,181.00 91.00,181.00
             91.00,181.00 100.00,181.00 100.00,181.00
             100.00,181.00 100.00,172.00 100.00,172.00 Z
           M 253.00,181.00
           C 253.00,181.00 262.00,181.00 262.00,181.00
             262.00,181.00 262.00,190.00 262.00,190.00
             262.00,190.00 253.00,190.00 253.00,190.00
             253.00,190.00 253.00,181.00 253.00,181.00 Z
           M 154.00,190.00
           C 154.00,190.00 145.00,190.00 145.00,190.00
             145.00,190.00 145.00,199.00 145.00,199.00
             145.00,199.00 154.00,199.00 154.00,199.00
             154.00,199.00 154.00,190.00 154.00,190.00 Z
           M 217.00,190.00
           C 217.00,190.00 190.00,190.00 190.00,190.00
             190.00,190.00 190.00,217.00 190.00,217.00
             190.00,217.00 217.00,217.00 217.00,217.00
             217.00,217.00 217.00,190.00 217.00,190.00 Z
           M 37.00,199.00
           C 37.00,199.00 100.00,199.00 100.00,199.00
             100.00,199.00 100.00,262.00 100.00,262.00
             100.00,262.00 37.00,262.00 37.00,262.00
             37.00,262.00 37.00,199.00 37.00,199.00 Z
           M 199.00,199.00
           C 199.00,199.00 208.00,199.00 208.00,199.00
             208.00,199.00 208.00,208.00 208.00,208.00
             208.00,208.00 199.00,208.00 199.00,208.00
             199.00,208.00 199.00,199.00 199.00,199.00 Z
           M 91.00,208.00
           C 91.00,208.00 46.00,208.00 46.00,208.00
             46.00,208.00 46.00,253.00 46.00,253.00
             46.00,253.00 91.00,253.00 91.00,253.00
             91.00,253.00 91.00,208.00 91.00,208.00 Z
           M 163.00,208.00
           C 163.00,208.00 154.00,208.00 154.00,208.00
             154.00,208.00 154.00,217.00 154.00,217.00
             154.00,217.00 145.00,217.00 145.00,217.00
             145.00,217.00 145.00,226.00 145.00,226.00
             145.00,226.00 163.00,226.00 163.00,226.00
             163.00,226.00 163.00,208.00 163.00,208.00 Z
           M 55.00,217.00
           C 55.00,217.00 82.00,217.00 82.00,217.00
             82.00,217.00 82.00,244.00 82.00,244.00
             82.00,244.00 55.00,244.00 55.00,244.00
             55.00,244.00 55.00,217.00 55.00,217.00 Z" />
</svg>
